<svg width="156" height="156" viewBox="0 0 156 156" fill="none" xmlns="http://www.w3.org/2000/svg">
<g clip-path="url(#clip0_136_796)">
<path d="M109.481 50.7012C53.5939 52.1252 46.0615 122.569 99.9176 134.118C99.7274 135.392 97.877 144.495 97.9745 145.566C97.9745 151.318 103.136 155.997 109.481 155.997C116.381 156.151 122.136 149.973 120.822 143.819C120.822 143.819 119.045 134.118 119.045 134.118C172.939 122.547 165.327 52.1096 109.481 50.7012ZM113.97 148.992C110.669 152.769 103.437 150.401 103.6 145.566C103.439 145.635 105.457 135.153 105.487 134.844C108.116 135.08 110.847 135.08 113.476 134.844L115.275 144.665C115.562 146.215 115.086 147.792 113.97 148.992ZM109.481 129.917C86.9924 129.917 68.6952 113.295 68.6952 92.8645C70.9365 43.7092 148.035 43.7236 150.268 92.8648C150.267 113.295 131.97 129.917 109.481 129.917Z" fill="#FBFCFD"/>
<path d="M109.481 62.3513C90.9603 62.3513 75.8921 76.0389 75.8921 92.8646C77.7363 133.346 141.233 133.335 143.071 92.8643C143.071 76.0389 128.002 62.3513 109.481 62.3513ZM109.481 118.268C94.0615 118.268 81.5178 106.872 81.5178 92.8645C83.0535 59.1644 135.915 59.1743 137.445 92.8647C137.445 106.872 124.901 118.268 109.481 118.268Z" fill="#FBFCFD"/>
<path d="M8.61206 147.208C9.39493 152.219 14.1842 155.997 19.7522 155.997H78.2586C83.8266 155.997 88.6158 152.219 89.3987 147.208L91.0867 136.4C91.5289 133.051 86.1017 132.374 85.5159 135.682L83.8279 146.489C83.4365 148.997 81.0426 150.886 78.2586 150.886H19.7522C16.9682 150.886 14.5742 148.997 14.1814 146.487L5.3501 90.2642C4.80382 87.2947 7.5998 84.3726 10.9196 84.4473C10.9195 84.4473 58.8778 84.4473 58.8778 84.4473C60.4311 84.4473 61.6906 83.3043 61.6906 81.8919C61.6906 80.4795 60.4311 79.3366 58.8778 79.3366H49.1722C55.2822 69.1641 58 53.7487 47.082 45.7502C41.5187 41.7272 34.594 41.3393 28.0423 40.083C6.76903 35.921 16.307 20.5596 32.7804 16.8292C34.7425 31.7265 52.8663 38.8976 67.1408 33.2225C74.0091 30.6701 79.8861 25.7016 83.6892 19.2359C84.0312 18.657 84.1123 17.9794 83.9186 17.3468C77.7171 -3.80171 45.4364 -5.44981 32.5653 11.5109C21.7698 13.878 8.26524 21.5989 10.3725 33.3813C12.2568 42.0481 24.4902 45.1514 34.7438 46.4536C22.8558 48.2189 14.2513 55.8925 10.8522 67.155C10.6297 67.8849 10.7753 68.6672 11.2491 69.2898C21.9105 82.4061 43.6964 74.4776 48.969 60.4285C49.3824 67.1834 46.1606 73.3152 42.9165 79.3366H10.9195C7.64925 79.3366 4.54664 80.6242 2.40815 82.8676C0.273801 85.1086 -0.683491 88.0707 -0.217883 90.9929L8.61206 147.208ZM56.5196 19.0537C57.8916 19.73 59.5933 19.2633 60.3309 18.0219C63.3528 12.7276 44.8699 10.2826 41.1906 10.5544C52.7819 2.04562 71.9189 2.56686 78.1693 17.7374C69.445 33.1512 41.8584 35.4871 38.2794 15.8934C44.5602 15.3441 51.0104 16.3486 56.5196 19.0537ZM40.4144 63.8747C34.7427 70.8341 23.2819 73.7034 16.6756 67.2997C19.9865 57.6264 28.2571 51.4977 38.8344 51.2252C35.2871 52.6127 22.9774 65.1662 31.1724 66.4077C32.3467 66.4076 33.4414 65.7338 33.8383 64.667C35.5798 59.9748 39.7953 56.0595 44.838 54.1374C44.3804 57.7898 42.9757 60.9669 40.4144 63.8747Z" fill="#FBFCFD"/>
<path d="M23.6898 130.444V140.665C23.7509 144.021 29.2535 144.026 29.3155 140.665V130.444C29.2544 127.088 23.7518 127.083 23.6898 130.444ZM34.9412 130.444V140.665C35.0023 144.021 40.5049 144.026 40.5668 140.665V130.444C40.5057 127.088 35.0031 127.083 34.9412 130.444ZM46.1925 130.444V140.665C46.2536 144.021 51.7562 144.026 51.8182 140.665V130.444C51.7571 127.088 46.2545 127.083 46.1925 130.444ZM57.4439 130.444V140.665C57.505 144.021 63.0076 144.026 63.0695 140.665V130.444C63.0084 127.088 57.5058 127.083 57.4439 130.444ZM74.3209 140.665V130.444C74.2598 127.088 68.7572 127.083 68.6952 130.444V140.665C68.7563 144.021 74.2589 144.026 74.3209 140.665Z" fill="#FBFCFD"/>
</g>
<defs>
<clipPath id="clip0_136_796">
<rect width="156" height="156" fill="white"/>
</clipPath>
</defs>
</svg>
