<svg width="48" height="32" viewBox="0 0 48 32" fill="none" xmlns="http://www.w3.org/2000/svg">
<path fill-rule="evenodd" clip-rule="evenodd" d="M5.65623 1.02039C6.18114 0.670949 6.81144 0.399875 7.50537 0.225131C8.19929 0.0503863 8.941 -0.0240391 9.68133 0.00678674C10.4217 0.0376126 11.1437 0.172986 11.7996 0.403935C12.4556 0.634885 13.0304 0.956137 13.486 1.3464L18.8708 5.95861C19.8578 6.80465 20.2058 7.9067 19.8158 8.94675L18.1748 13.327C18.0906 13.5538 18.0955 13.7914 18.189 14.0166C18.2825 14.2419 18.4616 14.4473 18.7088 14.613L26.0796 19.5272C26.3284 19.6924 26.637 19.812 26.9755 19.8744C27.3139 19.9367 27.6708 19.9398 28.0115 19.8833L34.5783 18.7892C35.3482 18.6616 36.1515 18.652 36.9277 18.7611C37.704 18.8703 38.4331 19.0953 39.0602 19.4192L45.978 23.0074C48.4649 24.2975 48.6929 26.7476 46.467 28.2296L43.3651 30.2977C41.1451 31.7778 37.8272 32.4278 34.7343 31.7018C26.8166 29.8469 19.6284 26.8251 13.705 22.8614C7.76029 18.9127 3.22797 14.1209 0.445399 8.84275C-0.640567 6.78265 0.334402 4.56855 2.55433 3.08848L5.65623 1.02039Z" fill="#162F4E"/>
</svg>
