<svg width="156" height="156" viewBox="0 0 156 156" fill="none" xmlns="http://www.w3.org/2000/svg">
<path d="M51.1875 34.125C47.1778 34.125 43.875 37.4278 43.875 41.4375V42.6562C43.875 45.5617 46.0078 47.9115 48.75 48.5002V95.0625C48.7502 96.2879 48.5091 97.5013 48.0402 98.6335C47.5714 99.7657 46.8841 100.794 46.0175 101.661L6.58489 141.095C4.80674 142.872 4.47645 145.481 5.3113 147.497C6.14614 149.514 8.22655 151.125 10.7408 151.125H111.135C113.648 151.125 115.73 149.514 116.565 147.497C117.4 145.481 117.068 142.872 115.291 141.095L75.8586 101.661C74.9919 100.794 74.3044 99.7658 73.8353 98.6336C73.3663 97.5015 73.1249 96.288 73.125 95.0625V48.5002C75.8696 47.9115 78 45.563 78 42.6562V41.4375C78 37.4278 74.6972 34.125 70.6875 34.125H51.1875ZM51.1875 39H70.6875C72.0635 39 73.125 40.0628 73.125 41.4375V42.6562C73.125 43.3582 72.6082 43.875 71.9062 43.875H70.6875C70.041 43.875 69.421 44.1318 68.9639 44.5889C68.5068 45.046 68.25 45.666 68.25 46.3125V95.0625C68.2505 98.83 69.7472 102.443 72.4108 105.107L111.842 144.544C112.23 144.931 112.215 145.257 112.059 145.633C111.903 146.01 111.684 146.25 111.135 146.25H10.7408C10.1924 146.25 9.97302 146.01 9.81702 145.633C9.66102 145.257 9.64639 144.931 10.034 144.544L49.4642 105.107C52.1279 102.443 53.6246 98.83 53.625 95.0625V46.3125C53.625 45.666 53.3682 45.046 52.9111 44.5889C52.4539 44.1318 51.834 43.875 51.1875 43.875H49.9687C49.2667 43.875 48.75 43.3582 48.75 42.6562V41.4375C48.75 40.0628 49.8127 39 51.1875 39ZM70.6875 4.875C66.6778 4.875 63.375 8.17781 63.375 12.1875V26.8125C63.375 30.8222 66.6778 34.125 70.6875 34.125C73.8355 34.125 76.4826 32.0653 77.5027 29.25H131.625C136.981 29.25 141.375 24.8564 141.375 19.5C141.375 14.1436 136.981 9.75 131.625 9.75H77.5027C76.4826 6.93469 73.8355 4.875 70.6875 4.875ZM70.6875 9.75C72.0635 9.75 73.125 10.8127 73.125 12.1875C73.125 12.834 73.3818 13.454 73.8389 13.9111C74.296 14.3682 74.916 14.625 75.5625 14.625H131.625C134.346 14.625 136.5 16.7785 136.5 19.5C136.5 22.2215 134.346 24.375 131.625 24.375H75.5625C74.916 24.375 74.296 24.6318 73.8389 25.0889C73.3818 25.546 73.125 26.166 73.125 26.8125C73.125 28.1873 72.0635 29.25 70.6875 29.25C69.3127 29.25 68.25 28.1873 68.25 26.8125V12.1875C68.25 10.8127 69.3127 9.75 70.6875 9.75Z" fill="#FBFCFD"/>
<path d="M60.9375 43.875C60.291 43.875 59.671 44.1318 59.2139 44.5889C58.7568 45.046 58.5 45.666 58.5 46.3125V51.1875C58.5 51.834 58.7568 52.454 59.2139 52.9111C59.671 53.3682 60.291 53.625 60.9375 53.625C61.584 53.625 62.204 53.3682 62.6611 52.9111C63.1182 52.454 63.375 51.834 63.375 51.1875V46.3125C63.375 45.666 63.1182 45.046 62.6611 44.5889C62.204 44.1318 61.584 43.875 60.9375 43.875ZM60.9375 58.5C60.291 58.5 59.671 58.7568 59.2139 59.2139C58.7568 59.671 58.5 60.291 58.5 60.9375V65.8125C58.5 66.459 58.7568 67.079 59.2139 67.5361C59.671 67.9932 60.291 68.25 60.9375 68.25C61.584 68.25 62.204 67.9932 62.6611 67.5361C63.1182 67.079 63.375 66.459 63.375 65.8125V60.9375C63.375 60.291 63.1182 59.671 62.6611 59.2139C62.204 58.7568 61.584 58.5 60.9375 58.5ZM60.9375 73.125C60.291 73.125 59.671 73.3818 59.2139 73.8389C58.7568 74.296 58.5 74.916 58.5 75.5625V85.3125C58.5 85.959 58.7568 86.579 59.2139 87.0361C59.671 87.4932 60.291 87.75 60.9375 87.75C61.584 87.75 62.204 87.4932 62.6611 87.0361C63.1182 86.579 63.375 85.959 63.375 85.3125V75.5625C63.375 74.916 63.1182 74.296 62.6611 73.8389C62.204 73.3818 61.584 73.125 60.9375 73.125ZM60.9375 92.625C60.291 92.625 59.671 92.8818 59.2139 93.3389C58.7568 93.796 58.5 94.416 58.5 95.0625V104.812C58.5 105.459 58.7568 106.079 59.2139 106.536C59.671 106.993 60.291 107.25 60.9375 107.25C61.584 107.25 62.204 106.993 62.6611 106.536C63.1182 106.079 63.375 105.459 63.375 104.812V95.0625C63.375 94.416 63.1182 93.796 62.6611 93.3389C62.204 92.8818 61.584 92.625 60.9375 92.625ZM36.5625 112.125C35.916 112.125 35.296 112.382 34.8389 112.839C34.3818 113.296 34.125 113.916 34.125 114.562C34.125 115.209 34.3818 115.829 34.8389 116.286C35.296 116.743 35.916 117 36.5625 117H85.3125C85.959 117 86.579 116.743 87.0361 116.286C87.4932 115.829 87.75 115.209 87.75 114.562C87.75 113.916 87.4932 113.296 87.0361 112.839C86.579 112.382 85.959 112.125 85.3125 112.125H36.5625Z" fill="#FBFCFD"/>
<path fill-rule="evenodd" clip-rule="evenodd" d="M119.438 43.875C107.351 43.875 97.5 53.7262 97.5 65.8125V95.0625C97.5 109.842 109.534 121.875 124.312 121.875C139.092 121.875 151.125 109.842 151.125 95.0625V65.8125C151.125 53.7262 141.275 43.875 129.188 43.875H119.438ZM119.438 48.75H129.188C138.64 48.75 146.25 56.3599 146.25 65.8125V95.0625C146.25 107.207 136.457 117 124.312 117C112.169 117 102.375 107.207 102.375 95.0625V65.8125C102.375 56.3599 109.986 48.75 119.438 48.75Z" fill="#FBFCFD"/>
<path fill-rule="evenodd" clip-rule="evenodd" d="M124.312 58.5C120.303 58.5 117 61.8028 117 65.8125V70.6875C117 74.6972 120.303 78 124.312 78C128.322 78 131.625 74.6972 131.625 70.6875V65.8125C131.625 61.8028 128.322 58.5 124.312 58.5ZM124.312 63.375C125.706 63.375 126.75 64.4195 126.75 65.8125V70.6875C126.75 72.0805 125.706 73.125 124.312 73.125C122.921 73.125 121.875 72.0805 121.875 70.6875V65.8125C121.875 64.4195 122.921 63.375 124.312 63.375ZM99.9375 85.3125C99.291 85.3125 98.671 85.5693 98.2139 86.0264C97.7568 86.4835 97.5 87.1035 97.5 87.75C97.5 88.3965 97.7568 89.0165 98.2139 89.4736C98.671 89.9307 99.291 90.1875 99.9375 90.1875H102.375C105.096 90.1875 107.25 92.341 107.25 95.0625C107.25 104.671 114.705 112.125 124.312 112.125C133.921 112.125 141.375 104.671 141.375 95.0625C141.375 92.341 143.53 90.1875 146.25 90.1875H148.688C149.334 90.1875 149.954 89.9307 150.411 89.4736C150.868 89.0165 151.125 88.3965 151.125 87.75C151.125 87.1035 150.868 86.4835 150.411 86.0264C149.954 85.5693 149.334 85.3125 148.688 85.3125H146.25C140.895 85.3125 136.5 89.7061 136.5 95.0625C136.5 102.265 131.517 107.25 124.312 107.25C117.11 107.25 112.125 102.265 112.125 95.0625C112.125 89.7061 107.731 85.3125 102.375 85.3125H99.9375Z" fill="#FBFCFD"/>
<path d="M138.938 17.0625C138.291 17.0625 137.671 17.3193 137.214 17.7764C136.757 18.2335 136.5 18.8535 136.5 19.5C136.5 20.1465 136.757 20.7665 137.214 21.2236C137.671 21.6807 138.291 21.9375 138.938 21.9375H141.375C144.096 21.9375 146.25 24.091 146.25 26.8125V29.25C146.25 31.9715 144.096 34.125 141.375 34.125H131.625C126.27 34.125 121.875 38.5186 121.875 43.875V46.3125C121.875 46.959 122.132 47.579 122.589 48.0361C123.046 48.4932 123.666 48.75 124.312 48.75C124.959 48.75 125.579 48.4932 126.036 48.0361C126.493 47.579 126.75 46.959 126.75 46.3125V43.875C126.75 41.1535 128.905 39 131.625 39H141.375C146.731 39 151.125 34.6064 151.125 29.25V26.8125C151.125 21.4561 146.731 17.0625 141.375 17.0625H138.938Z" fill="#FBFCFD"/>
</svg>
