<svg width="64" height="64" viewBox="0 0 64 64" fill="none" xmlns="http://www.w3.org/2000/svg">
<path d="M0.781952 4.55756C0.534043 4.30965 0.337391 4.01533 0.203223 3.69142C0.0690554 3.36752 2.61215e-09 3.02035 0 2.66975C-2.61215e-09 2.31916 0.0690554 1.97199 0.203223 1.64808C0.337391 1.32417 0.534043 1.02986 0.781952 0.781952C1.02986 0.534043 1.32417 0.337391 1.64808 0.203223C1.97199 0.0690554 2.31916 -2.61215e-09 2.66975 0C3.02035 2.61215e-09 3.36752 0.0690554 3.69142 0.203223C4.01533 0.337391 4.30965 0.534043 4.55756 0.781952L32 28.2297L59.4424 0.781952C59.6904 0.534043 59.9847 0.337391 60.3086 0.203223C60.6325 0.0690554 60.9797 0 61.3302 0C61.6808 0 62.028 0.0690554 62.3519 0.203223C62.6758 0.337391 62.9701 0.534043 63.218 0.781952C63.466 1.02986 63.6626 1.32417 63.7968 1.64808C63.9309 1.97199 64 2.31916 64 2.66975C64 3.02035 63.9309 3.36752 63.7968 3.69142C63.6626 4.01533 63.466 4.30965 63.218 4.55756L35.7703 32L63.218 59.4424C63.466 59.6904 63.6626 59.9847 63.7968 60.3086C63.9309 60.6325 64 60.9797 64 61.3302C64 61.6808 63.9309 62.028 63.7968 62.3519C63.6626 62.6758 63.466 62.9701 63.218 63.218C62.9701 63.466 62.6758 63.6626 62.3519 63.7968C62.028 63.9309 61.6808 64 61.3302 64C60.9797 64 60.6325 63.9309 60.3086 63.7968C59.9847 63.6626 59.6904 63.466 59.4424 63.218L32 35.7703L4.55756 63.218C4.30965 63.466 4.01533 63.6626 3.69142 63.7968C3.36752 63.9309 3.02035 64 2.66975 64C2.31916 64 1.97199 63.9309 1.64808 63.7968C1.32417 63.6626 1.02986 63.466 0.781952 63.218C0.534043 62.9701 0.337391 62.6758 0.203223 62.3519C0.0690554 62.028 0 61.6808 0 61.3302C0 60.9797 0.0690554 60.6325 0.203223 60.3086C0.337391 59.9847 0.534043 59.6904 0.781952 59.4424L28.2297 32L0.781952 4.55756Z" fill="#D32E3E"/>
</svg>
