<svg width="156" height="156" viewBox="0 0 156 156" fill="none" xmlns="http://www.w3.org/2000/svg">
<g clip-path="url(#clip0_131_773)">
<path fill-rule="evenodd" clip-rule="evenodd" d="M106.833 112.966L103.251 102.207H110.276C111.761 102.207 112.966 101.002 112.966 99.5172V91.4483H142.552C144.037 91.4483 145.242 90.2433 145.242 88.7586V78C145.242 76.5153 144.037 75.3103 142.552 75.3103H139.862V2.68966C139.862 1.20497 138.657 0 137.173 0H18.8272C17.3425 0 16.1375 1.20497 16.1375 2.68966V75.3103H13.4479C11.9632 75.3103 10.7582 76.5153 10.7582 78V88.7586C10.7582 90.2433 11.9632 91.4483 13.4479 91.4483H43.0343V99.5172C43.0343 101.002 44.2392 102.207 45.7239 102.207H52.7494L49.1667 112.966H45.7239C44.2392 112.966 43.0343 114.17 43.0343 115.655C43.0343 117.14 44.2392 118.345 45.7239 118.345H110.276C111.761 118.345 112.966 117.14 112.966 115.655C112.966 114.17 111.761 112.966 110.276 112.966H106.833ZM90.4048 112.966L86.8221 102.207H69.1779L65.5952 112.966H90.4048ZM101.163 112.966H96.0746L92.492 102.207H97.5808C97.5808 102.207 101.158 112.955 101.163 112.966ZM63.508 102.207L59.9254 112.966H54.8365L58.4192 102.207H63.508ZM107.586 91.4483V96.8276H48.4136V91.4483H107.586ZM139.862 80.6897V86.069H16.1375V80.6897H139.862ZM69.931 75.3103H134.483V5.37931H21.5169V75.3103H32.2756V67.2414C32.2756 65.7567 33.4805 64.5517 34.9652 64.5517H67.2413C68.726 64.5517 69.931 65.7567 69.931 67.2414V75.3103ZM64.5516 69.931V75.3103H37.6549V69.931H64.5516ZM37.4451 37.6552H34.9652C33.4805 37.6552 32.2756 38.8601 32.2756 40.3448C32.2756 41.8295 33.4805 43.0345 34.9652 43.0345H35.2934L32.4692 50.1029C31.9152 51.4854 32.5876 53.0508 33.9647 53.5994C35.3472 54.1535 36.9126 53.4811 37.4613 52.104L41.0923 43.0345H50.3555L53.9866 52.104C54.5353 53.4811 56.1007 54.1535 57.4832 53.5994C58.8603 53.0508 59.5327 51.4854 58.9786 50.1029L56.1545 43.0345H56.4826C57.9673 43.0345 59.1723 41.8295 59.1723 40.3448C59.1723 38.8601 57.9673 37.6552 56.4826 37.6552H54.0027L48.2199 23.2063C47.8111 22.1843 46.8213 21.5172 45.7239 21.5172C44.6265 21.5172 43.6367 22.1843 43.2279 23.2063L37.4451 37.6552ZM121.035 21.5172H112.966C104.052 21.5172 96.8277 28.7417 96.8277 37.6552C96.8277 37.6605 96.8277 37.6605 96.8277 37.6659C96.8277 41.9425 98.5276 46.0469 101.551 49.0701C104.574 52.0932 108.678 53.7931 112.955 53.7931C117.307 53.7931 121.035 53.7931 121.035 53.7931C122.519 53.7931 123.724 52.5881 123.724 51.1034C123.724 49.6188 122.519 48.4138 121.035 48.4138H112.955C110.104 48.4138 107.371 47.2841 105.354 45.2669C103.342 43.2497 102.207 40.517 102.207 37.6659C102.207 37.6605 102.207 37.6605 102.207 37.6552C102.207 31.711 107.022 26.8966 112.966 26.8966H121.035C122.519 26.8966 123.724 25.6916 123.724 24.2069C123.724 22.7222 122.519 21.5172 121.035 21.5172ZM91.4484 43.0345C91.4484 40.2211 90.3671 37.6552 88.5973 35.7401C90.3402 34.2608 91.4484 32.0553 91.4484 29.5862C91.4484 25.1321 87.8334 21.5172 83.3793 21.5172H67.2413C65.7566 21.5172 64.5516 22.7222 64.5516 24.2069V51.1034C64.5516 52.5881 65.7566 53.7931 67.2413 53.7931C67.2413 53.7931 74.5841 53.7931 80.6897 53.7931C83.5407 53.7931 86.2788 52.6581 88.2961 50.6408C90.3133 48.6236 91.4484 45.8855 91.4484 43.0345ZM78.0161 32.2759H83.3793C84.864 32.2759 86.069 31.0709 86.069 29.5862C86.069 28.1015 84.864 26.8966 83.3793 26.8966H69.931V48.4138H80.6897C82.1152 48.4138 83.4869 47.849 84.4929 46.8377C85.5042 45.8317 86.069 44.46 86.069 43.0345C86.069 40.0651 83.6591 37.6552 80.6897 37.6552H78C76.5153 37.6552 75.3103 36.4502 75.3103 34.9655C75.3103 33.4808 76.5153 32.2759 78 32.2759C78.0054 32.2759 78.0108 32.2759 78.0161 32.2759ZM43.244 37.6552H48.2038L45.7239 31.4474L43.244 37.6552ZM78 150.621C79.4847 150.621 80.6897 151.826 80.6897 153.31C80.6897 154.795 79.4847 156 78 156C76.5153 156 75.3103 154.795 75.3103 153.31C75.3103 151.826 76.5153 150.621 78 150.621ZM16.1375 150.621V153.31C16.1375 154.795 17.3425 156 18.8272 156H67.2413C68.726 156 69.931 154.795 69.931 153.31C69.931 151.826 68.726 150.621 67.2413 150.621H21.5169V139.862H134.483V150.621H88.7587C87.274 150.621 86.069 151.826 86.069 153.31C86.069 154.795 87.274 156 88.7587 156H137.173C138.657 156 139.862 154.795 139.862 153.31V150.621H153.311C154.241 150.621 155.108 150.137 155.597 149.346C156.087 148.55 156.135 147.56 155.715 146.726L150.939 137.172L155.715 127.619C156.135 126.785 156.087 125.795 155.597 124.999C155.108 124.208 154.241 123.724 153.311 123.724H126.414C124.929 123.724 123.724 124.929 123.724 126.414V134.483H32.2756V126.414C32.2756 124.929 31.0706 123.724 29.5859 123.724H2.68918C1.75855 123.724 0.892474 124.208 0.402954 124.999C-0.0865662 125.795 -0.134981 126.785 0.284608 127.619L5.06147 137.172L0.284608 146.726C-0.134981 147.56 -0.0865662 148.55 0.402954 149.346C0.892474 150.137 1.75855 150.621 2.68918 150.621H16.1375ZM139.862 145.241H148.959L145.527 138.377C145.145 137.619 145.145 136.726 145.527 135.967L148.959 129.103H129.104V134.483H137.173C138.657 134.483 139.862 135.688 139.862 137.172V145.241ZM26.8962 134.483V129.103H7.04107L10.4731 135.967C10.855 136.726 10.855 137.619 10.4731 138.377L7.04107 145.241H16.1375V137.172C16.1375 135.688 17.3425 134.483 18.8272 134.483H26.8962Z" fill="#FBFCFD"/>
</g>
<defs>
<clipPath id="clip0_131_773">
<rect width="156" height="156" fill="white"/>
</clipPath>
</defs>
</svg>
