<svg width="156" height="156" viewBox="0 0 156 156" fill="none" xmlns="http://www.w3.org/2000/svg">
<g clip-path="url(#clip0_131_778)">
<path d="M133.25 0H22.75C10.075 0 0 10.075 0 22.75V133.25C0 145.925 10.075 156 22.75 156H133.25C145.925 156 156 145.925 156 133.25V22.75C156 10.075 145.925 0 133.25 0ZM149.5 22.75V74.75H81.25V6.5H133.25C142.35 6.5 149.5 13.65 149.5 22.75ZM6.5 22.75C6.5 13.65 13.65 6.5 22.75 6.5H74.75V74.75H6.5V22.75ZM6.5 133.25V81.25H74.75V149.5H22.75C13.65 149.5 6.5 142.35 6.5 133.25ZM149.5 133.25C149.5 142.35 142.35 149.5 133.25 149.5H81.25V81.25H149.5V133.25ZM58.175 40.625C58.175 42.575 56.875 43.875 54.925 43.875H43.875V54.925C43.875 56.875 42.575 58.175 40.625 58.175C38.675 58.175 37.375 56.875 37.375 54.925V43.875H26.325C24.375 43.875 23.075 42.575 23.075 40.625C23.075 38.675 24.375 37.375 26.325 37.375H37.375V26.325C37.375 24.375 38.675 23.075 40.625 23.075C42.575 23.075 43.875 24.375 43.875 26.325V37.375H54.925C56.875 37.375 58.175 38.675 58.175 40.625ZM54.275 106.275L45.175 115.375L54.275 124.475C55.575 125.775 55.575 127.725 54.275 129.025C53.625 129.675 52.975 130 52 130C51.025 130 50.375 129.675 49.725 129.025L40.625 119.925L31.525 129.025C30.875 129.675 30.225 130 29.25 130C28.275 130 27.625 129.675 26.975 129.025C25.675 127.725 25.675 125.775 26.975 124.475L36.075 115.375L26.975 106.275C25.675 104.975 25.675 103.025 26.975 101.725C28.275 100.425 30.225 100.425 31.525 101.725L40.625 110.825L49.725 101.725C51.025 100.425 52.975 100.425 54.275 101.725C55.575 103.025 55.575 104.975 54.275 106.275ZM97.825 40.625C97.825 38.675 99.125 37.375 101.075 37.375H129.675C131.625 37.375 132.925 38.675 132.925 40.625C132.925 42.575 131.625 43.875 129.675 43.875H101.075C99.125 43.875 97.825 42.575 97.825 40.625ZM97.825 107.25C97.825 105.3 99.125 104 101.075 104H129.675C131.625 104 132.925 105.3 132.925 107.25C132.925 109.2 131.625 110.5 129.675 110.5H101.075C99.125 110.5 97.825 109.2 97.825 107.25ZM97.825 123.5C97.825 121.55 99.125 120.25 101.075 120.25H129.675C131.625 120.25 132.925 121.55 132.925 123.5C132.925 125.45 131.625 126.75 129.675 126.75H101.075C99.125 126.75 97.825 125.125 97.825 123.5Z" fill="#FBFCFD"/>
</g>
<defs>
<clipPath id="clip0_131_778">
<rect width="156" height="156" fill="white"/>
</clipPath>
</defs>
</svg>
