<svg width="156" height="156" viewBox="0 0 156 156" fill="none" xmlns="http://www.w3.org/2000/svg">
<g clip-path="url(#clip0_133_781)">
<path d="M7.96378 156H148.009C150.126 155.991 152.155 154.972 153.651 153.165C155.148 151.359 155.993 148.911 156 146.356V130.18C155.993 127.625 155.148 125.178 153.651 123.371C152.155 121.564 150.126 120.545 148.009 120.536H138.561V24.3644H138.729C141.309 24.3644 143.784 23.1273 145.608 20.9252C147.433 18.7231 148.458 15.7364 148.458 12.6221V11.7423C148.458 8.62805 147.433 5.64135 145.608 3.43924C143.784 1.23713 141.309 0 138.729 0H17.2441C14.6661 0.00892834 12.1958 1.24893 10.3729 3.4491C8.54997 5.64928 7.52259 8.63079 7.51519 11.7423V12.6221C7.51519 14.1641 7.76683 15.6911 8.25576 17.1157C8.74468 18.5403 9.4613 19.8348 10.3647 20.9252C12.1892 23.1273 14.6638 24.3644 17.2441 24.3644H17.4964V120.367H7.96378C6.90491 120.371 5.85729 120.63 4.88183 121.127C3.90637 121.624 3.02252 122.35 2.28164 123.263C1.54076 124.176 0.957639 125.258 0.566158 126.446C0.174677 127.633 -0.0173522 128.903 0.00123067 130.18V146.525C0.0378913 149.047 0.892077 151.452 2.3806 153.224C3.86913 154.995 5.87347 155.992 7.96378 156ZM13.1226 12.6221V11.7423C13.1226 10.423 13.5568 9.15775 14.3298 8.22486C15.1027 7.29198 16.151 6.76789 17.2441 6.76789H138.729C139.822 6.76789 140.87 7.29198 141.643 8.22486C142.416 9.15775 142.851 10.423 142.851 11.7423V12.6221C142.851 13.9414 142.416 15.2067 141.643 16.1396C140.87 17.0724 139.822 17.5965 138.729 17.5965H17.2441C16.151 17.5965 15.1027 17.0724 14.3298 16.1396C13.5568 15.2067 13.1226 13.9414 13.1226 12.6221ZM83.9164 74.5145C84.7649 74.5145 85.5942 74.8182 86.2997 75.3871C87.0051 75.956 87.5549 76.7646 87.8796 77.7106C88.2043 78.6567 88.2892 79.6977 88.1237 80.702C87.9582 81.7064 87.5496 82.6289 86.9497 83.353C86.3498 84.077 85.5854 84.5702 84.7533 84.7699C83.9212 84.9697 83.0587 84.8672 82.2749 84.4753C81.491 84.0834 80.8211 83.4198 80.3497 82.5684C79.8783 81.717 79.6268 80.716 79.6268 79.692C79.6341 78.3216 80.0884 77.0098 80.8913 76.0408C81.6942 75.0717 82.781 74.5234 83.9164 74.5145ZM62.8605 74.5145C63.709 74.5145 64.5383 74.8182 65.2438 75.3871C65.9492 75.956 66.499 76.7646 66.8237 77.7106C67.1484 78.6567 67.2333 79.6977 67.0678 80.702C66.9023 81.7064 66.4937 82.6289 65.8938 83.353C65.2939 84.077 64.5295 84.5702 63.6974 84.7699C62.8653 84.9697 62.0028 84.8672 61.2189 84.4753C60.4351 84.0834 59.7652 83.4198 59.2938 82.5684C58.8224 81.717 58.5709 80.716 58.5709 79.692C58.5782 78.3216 59.0325 77.0098 59.8354 76.0408C60.6383 75.0717 61.7251 74.5234 62.8605 74.5145ZM40.1504 74.5145C40.9989 74.5145 41.8282 74.8182 42.5337 75.3871C43.2391 75.956 43.7889 76.7646 44.1136 77.7106C44.4383 78.6567 44.5232 79.6977 44.3577 80.702C44.1922 81.7064 43.7836 82.6289 43.1837 83.353C42.5838 84.077 41.8194 84.5702 40.9873 84.7699C40.1552 84.9697 39.2927 84.8672 38.5089 84.4753C37.725 84.0834 37.0551 83.4198 36.5837 82.5684C36.1123 81.717 35.8608 80.716 35.8608 79.692C35.8608 78.3188 36.3127 77.0019 37.1172 76.031C37.9216 75.06 39.0127 74.5145 40.1504 74.5145ZM23.1039 24.3644H37.4308V68.3557C35.1488 69.1693 33.1861 70.9479 31.9021 73.3658C30.6181 75.7837 30.0988 78.679 30.4393 81.5213C30.7799 84.3637 31.9574 86.9628 33.7564 88.8426C35.5553 90.7224 37.8551 91.7571 40.2346 91.7571C42.614 91.7571 44.9138 90.7224 46.7128 88.8426C48.5117 86.9628 49.6893 84.3637 50.0298 81.5213C50.3703 78.679 49.851 75.7837 48.567 73.3658C47.283 70.9479 45.3203 69.1693 43.0383 68.3557V24.3644H60.1409V68.3557C57.8589 69.1693 55.8962 70.9479 54.6122 73.3658C53.3282 75.7837 52.8089 78.679 53.1494 81.5213C53.49 84.3637 54.6675 86.9628 56.4664 88.8426C58.2654 90.7224 60.5652 91.7571 62.9446 91.7571C65.3241 91.7571 67.6239 90.7224 69.4229 88.8426C71.2218 86.9628 72.3993 84.3637 72.7399 81.5213C73.0804 78.679 72.5611 75.7837 71.2771 73.3658C69.9931 70.9479 68.0304 69.1693 65.7484 68.3557V24.3644H81.1968V68.3557C78.9148 69.1693 76.9521 70.9479 75.6681 73.3658C74.3841 75.7837 73.8648 78.679 74.2053 81.5213C74.5459 84.3637 75.7234 86.9628 77.5224 88.8426C79.3213 90.7224 81.6211 91.7571 84.0006 91.7571C86.38 91.7571 88.6799 90.7224 90.4788 88.8426C92.2777 86.9628 93.4553 84.3637 93.7958 81.5213C94.1363 78.679 93.6171 75.7837 92.333 73.3658C91.049 70.9479 89.0863 69.1693 86.8043 68.3557V24.3644H100.486L110.58 67.679C109.191 68.7394 108.037 70.191 107.215 71.9089C106.405 73.7222 105.996 75.7571 106.028 77.8169C106.059 79.8767 106.531 81.8919 107.396 83.6677C108.261 85.4436 109.491 86.92 110.968 87.9545C112.444 88.989 114.116 89.5464 115.823 89.5731C116.771 89.5777 117.715 89.4182 118.626 89.0993C119.882 88.6896 121.055 87.9778 122.077 87.0066C123.098 86.0355 123.946 84.8251 124.57 83.4482C125.208 82.0823 125.615 80.578 125.77 79.0217C125.925 77.4653 125.823 75.8873 125.472 74.3783C125.12 72.8693 124.525 71.459 123.721 70.228C122.917 68.9971 121.919 67.9699 120.785 67.2052C119.301 66.2655 117.638 65.8105 115.963 65.8855L106.29 24.3644H132.953V120.367H23.1039V24.3644ZM114.673 72.6534C115.048 72.5324 115.435 72.4754 115.823 72.4842C116.895 72.5047 117.921 73.0157 118.694 73.9141C119.466 74.8124 119.927 76.0311 119.983 77.3238C120.04 78.6166 119.688 79.8871 118.998 80.8786C118.309 81.8701 117.333 82.5088 116.268 82.6655C115.203 82.8222 114.129 82.4853 113.262 81.7229C112.395 80.9604 111.801 79.8293 111.598 78.5581C111.396 77.2868 111.601 75.9701 112.171 74.8741C112.742 73.778 113.636 72.9844 114.673 72.6534ZM5.60866 130.18C5.60862 129.423 5.85585 128.697 6.29673 128.158C6.73762 127.62 7.3366 127.313 7.96378 127.304H148.009C148.641 127.304 149.248 127.607 149.695 128.147C150.141 128.686 150.393 129.418 150.393 130.18V146.525C150.393 147.288 150.141 148.019 149.695 148.559C149.248 149.098 148.641 149.401 148.009 149.401H7.96378C7.3366 149.392 6.73762 149.085 6.29673 148.547C5.85585 148.008 5.60862 147.282 5.60866 146.525V130.18Z" fill="#FBFCFD"/>
</g>
<defs>
<clipPath id="clip0_133_781">
<rect width="156" height="156" fill="white"/>
</clipPath>
</defs>
</svg>
