<svg width="63" height="57" viewBox="0 0 63 57" fill="none" xmlns="http://www.w3.org/2000/svg">
<path d="M56.2511 56.25C57.9087 56.25 59.4985 55.5915 60.6706 54.4194C61.8427 53.2473 62.5011 51.6576 62.5011 50V34.7375C62.5011 33.0799 61.8427 31.4902 60.6706 30.3181C59.4985 29.146 57.9087 28.4875 56.2511 28.4875H47.5761C47.5761 26.2917 47.7053 24.0958 47.9636 21.9C48.3511 19.575 48.997 17.5083 49.9011 15.7C50.8053 13.8917 51.9699 12.4688 53.3949 11.4312C54.8116 10.2687 56.6199 9.6875 58.8199 9.6875V0C55.2032 0 52.0366 0.775 49.3199 2.325C46.622 3.85547 44.3041 5.97472 42.5386 8.525C40.7612 11.3322 39.4524 14.4099 38.6636 17.6375C37.866 21.1984 37.476 24.8385 37.5011 28.4875V50C37.5011 51.6576 38.1596 53.2473 39.3317 54.4194C40.5038 55.5915 42.0935 56.25 43.7511 56.25H56.2511ZM18.7511 56.25C20.4087 56.25 21.9985 55.5915 23.1706 54.4194C24.3427 53.2473 25.0011 51.6576 25.0011 50V34.7375C25.0011 33.0799 24.3427 31.4902 23.1706 30.3181C21.9985 29.146 20.4087 28.4875 18.7511 28.4875H10.0761C10.0761 26.2917 10.2053 24.0958 10.4636 21.9C10.8553 19.575 11.5011 17.5083 12.4011 15.7C13.3053 13.8917 14.4699 12.4688 15.8949 11.4312C17.3116 10.2687 19.1199 9.6875 21.3199 9.6875V0C17.7032 0 14.5366 0.775 11.8199 2.325C9.12203 3.85547 6.8041 5.97472 5.03864 8.525C3.26121 11.3322 1.95244 14.4099 1.16364 17.6375C0.366037 21.1984 -0.0239704 24.8385 0.00113934 28.4875V50C0.00113934 51.6576 0.659619 53.2473 1.83172 54.4194C3.00382 55.5915 4.59354 56.25 6.25114 56.25H18.7511Z" fill="#162F4E"/>
</svg>
